<svg xmlns="http://www.w3.org/2000/svg" width="500" height="500" viewBox="0 0 500 500">
  <metadata><?xpacket begin="﻿" id="W5M0MpCehiHzreSzNTczkc9d"?>
<x:xmpmeta xmlns:x="adobe:ns:meta/" x:xmptk="Adobe XMP Core 5.6-c138 79.159824, 2016/09/14-01:09:01        ">
   <rdf:RDF xmlns:rdf="http://www.w3.org/1999/02/22-rdf-syntax-ns#">
      <rdf:Description rdf:about=""/>
   </rdf:RDF>
</x:xmpmeta>
                                                                                                    
                                                                                                    
                                                                                                    
                                                                                                    
                                                                                                    
                                                                                                    
                                                                                                    
                                                                                                    
                                                                                                    
                                                                                                    
                                                                                                    
                                                                                                    
                                                                                                    
                                                                                                    
                                                                                                    
                                                                                                    
                                                                                                    
                                                                                                    
                                                                                                    
                                                                                                    
                           
<?xpacket end="w"?></metadata>
<defs>
    <style>
      .cls-1 {
        fill: #fff;
        fill-rule: evenodd;
      }
    </style>
  </defs>
  <path id="BlackPath" class="cls-1" d="M101.36,75.063v50.982h51.048V75.063H347.592v50.982H398.64V75.063c19.025-.277,35.081-0.546,43.041,10,10.866,14.392,6.006,52.934,6,76.972V339.968c0,21.334,4.858,57.659-4,71.974-8.027,12.968-23.4,13.307-45.042,13V373.956H347.592v50.982H152.408V373.956H101.36v50.982c-19.025.277-35.081,0.546-43.041-10-10.866-14.392-6.006-52.934-6.006-76.972V160.032c0-21.334-4.858-57.659,4-71.974C64.345,75.09,79.713,74.751,101.36,75.063Zm0,99.964v50.982h51.048V175.027H101.36Zm246.232,0v50.982H398.64V175.027H347.592ZM101.36,273.991v50.982h51.048V273.991H101.36Zm246.232,0v50.982H398.64V273.991H347.592Z"/>
</svg>
